<svg width="128" height="128" viewBox="0 0 128 128" fill="none" xmlns="http://www.w3.org/2000/svg">
    <path d="M0 61.44C0 32.4769 0 17.9954 8.99768 8.99768C17.9954 0 32.4769 0 61.44 0H66.56C95.5231 0 110.005 0 119.002 8.99768C128 17.9954 128 32.4769 128 61.44V66.56C128 95.5231 128 110.005 119.002 119.002C110.005 128 95.5231 128 66.56 128H61.44C32.4769 128 17.9954 128 8.99768 119.002C0 110.005 0 95.5231 0 66.56V61.44Z" fill="black"/>
    <path d="M68.1081 92.2096C38.9347 92.2096 22.2949 72.2097 21.6016 38.9297H36.2148C36.6948 63.3564 47.468 73.7029 56.0013 75.8363V38.9297H69.7617V59.9963C78.1884 59.0896 87.0407 49.4897 90.0273 38.9297H103.788C101.494 51.943 91.8944 61.5429 85.0677 65.4896C91.8944 68.6896 102.828 77.063 106.988 92.2096H91.8411C88.5878 82.0763 80.4817 74.2363 69.7617 73.1696V92.2096H68.1081Z" fill="white"/>
</svg>
